<svg xmlns="http://www.w3.org/2000/svg" width="30" height="30" viewBox="0 0 30 30" xmlns:xlink="http://www.w3.org/1999/xlink">
  <defs>
    <polygon id="a" points="29.772 30 0 30 0 .229 29.772 .229"/>
  </defs>
  <g fill="none" fill-rule="evenodd">
    <path fill="#FEFEFE" d="M15.5032498,17.5861844 C17.2138473,17.5926476 18.6120562,16.2073638 18.6206738,14.4946101 C18.6228282,13.8202807 18.4052333,13.1955026 18.0411389,12.6849081 C17.4788392,11.9007039 16.5653714,11.3836462 15.5291026,11.3793374 C14.4949883,11.3750286 13.5750573,11.8856231 13.0084488,12.6655185 C12.6378912,13.1718041 12.4159874,13.7944278 12.413833,14.4709116 C12.4052154,16.1836653 13.7926522,17.5797212 15.5032498,17.5861844"/>
    <polygon fill="#FEFEFE" points="21.713 11.379 21.724 8.683 21.724 8.28 21.322 8.278 18.623 8.276 18.621 11.377"/>
    <mask id="b" fill="white">
      <use xlink:href="#a"/>
    </mask>
    <path fill="#FEFEFE" d="M23.3582069,13.4104138 L23.3313103,20.3435172 C23.3230345,22.1476552 21.849931,23.6104138 20.0457931,23.6021379 L9.65751724,23.5607586 C7.85337931,23.5524828 6.39268966,22.0793793 6.39889655,20.2731724 L6.4257931,13.3442069 L6.44027586,9.88696552 C6.44855172,8.08282759 7.92165517,6.62213793 9.7257931,6.62834483 L20.112,6.66972414 C21.9182069,6.67593103 23.3788966,8.15110345 23.3726897,9.95524138 L23.3582069,13.4104138 Z M14.9457931,0.229034483 C6.7382069,0.195931034 0.0326896552,6.84765517 -0.000413793103,15.0552414 C-0.0335172414,23.2628276 6.6182069,29.9662759 14.8257931,30.0014483 C23.0333793,30.0324828 29.7388966,23.3807586 29.772,15.1752414 C29.8051034,6.96558621 23.1533793,0.262137931 14.9457931,0.229034483 Z" mask="url(#b)"/>
    <path fill="#FEFEFE" d="M19.5669553,15.1623732 C19.5567703,17.619047 17.5034747,19.6098685 14.9898172,19.5999144 C12.4761596,19.5919511 10.43916,17.5832122 10.449345,15.1265384 C10.451382,14.5372552 10.573602,13.9718619 10.791561,13.45823 L8.30438442,13.4482759 L8.27586642,20.117528 C8.27382942,20.9795537 8.98677929,21.6803229 9.86676313,21.6823137 L20.0925012,21.724121 C20.9724851,21.7281026 21.6935829,21.0313151 21.6976569,20.1712802 L21.7241379,13.5000372 L19.2349244,13.4900831 C19.4488094,14.0076967 19.5689923,14.57309 19.5669553,15.1623732"/>
  </g>
</svg>
