<svg xmlns="http://www.w3.org/2000/svg" viewBox="0 0 49.66 49.66"><defs><style>.cls-1{fill:#fff;}</style></defs><title>Asset 2</title><g id="Layer_2" data-name="Layer 2"><g id="Layer_1-2" data-name="Layer 1"><polygon class="cls-1" points="31.39 31.39 31.39 40.67 37.75 47.03 37.75 37.75 47.03 37.75 40.67 31.39 31.39 31.39"/><polygon class="cls-1" points="34.11 24.83 40.67 31.39 49.66 31.39 43.1 24.83 49.66 18.27 40.67 18.27 34.11 24.83"/><polygon class="cls-1" points="31.39 18.27 40.67 18.27 47.03 11.91 37.75 11.91 37.75 2.63 31.39 8.99 31.39 18.27"/><polygon class="cls-1" points="24.83 15.55 31.39 8.99 31.39 0 24.83 6.56 18.27 0 18.27 8.99 24.83 15.55"/><polygon class="cls-1" points="24.83 34.11 18.27 40.67 18.27 49.66 24.83 43.1 31.39 49.66 31.39 40.67 24.83 34.11"/><polygon class="cls-1" points="18.27 18.27 18.27 8.99 11.91 2.63 11.91 11.91 2.63 11.91 8.99 18.27 18.27 18.27"/><polygon class="cls-1" points="15.55 24.83 8.99 18.27 0 18.27 6.56 24.83 0 31.39 8.99 31.39 15.55 24.83"/><polygon class="cls-1" points="18.27 31.39 8.99 31.39 2.63 37.75 11.91 37.75 11.91 47.03 18.27 40.67 18.27 31.39"/></g></g></svg>