<svg xmlns="http://www.w3.org/2000/svg" width="30" height="30" viewBox="0 0 30 30">
  <path fill="#FEFEFE" fill-rule="evenodd" d="M21.6916355,11.5667915 C21.6978777,11.7145235 21.7020391,11.866417 21.7020391,12.0162297 C21.7020391,16.5771952 18.2292967,21.8372867 11.8789014,21.8372867 C9.9292551,21.8372867 8.1127757,21.267166 6.5855181,20.2871411 C6.85601332,20.3183521 7.13067,20.3349979 7.40948814,20.3349979 C9.02829796,20.3349979 10.5160216,19.7836038 11.6978777,18.8576779 C10.1872659,18.8285476 8.91177695,17.8318768 8.47066167,16.4606742 C8.68289638,16.5002081 8.89929255,16.5230961 9.11985019,16.5230961 C9.43612151,16.5230961 9.74198918,16.4794007 10.031211,16.4003329 C8.45193508,16.0861423 7.26175614,14.6899709 7.26175614,13.0149813 C7.26175614,13.0004161 7.26175614,12.9879318 7.26175614,12.9733666 C7.7278402,13.2313774 8.2605077,13.3874324 8.82438618,13.4040782 C7.90054099,12.7861007 7.29088639,11.7290886 7.29088639,10.5305868 C7.29088639,9.89804411 7.45942572,9.30503537 7.75697045,8.79525593 C9.45900957,10.8843113 12.0037453,12.2575947 14.8730753,12.4032459 C14.8127341,12.1493966 14.7836038,11.8872243 14.7836038,11.6146484 C14.7836038,9.70869746 16.329588,8.16271328 18.2355389,8.16271328 C19.2280483,8.16271328 20.1248439,8.58094049 20.7553059,9.25301706 C21.5439035,9.09696213 22.2804827,8.81190179 22.9483978,8.4144819 C22.6883063,9.22180608 22.1431544,9.89804411 21.4294632,10.3245943 C22.1285893,10.241365 22.7944236,10.0561798 23.4124012,9.78360383 C22.9504786,10.474407 22.3657928,11.0840616 21.6916355,11.5667915 M15,0 C6.72908864,0 0,6.72908864 0,15 C0,23.2709114 6.72908864,30 15,30 C23.2709114,30 30,23.2709114 30,15 C30,6.72908864 23.2709114,0 15,0"/>
</svg>
