<svg xmlns="http://www.w3.org/2000/svg" width="29" height="30" viewBox="0 0 29 30" xmlns:xlink="http://www.w3.org/1999/xlink">
  <defs>
    <polygon id="a" points="28.907 .304 .001 .304 .001 29.139 28.907 29.139 28.907 .304"/>
  </defs>
  <g fill="none" fill-rule="evenodd">
    <mask id="b" fill="white">
      <use xlink:href="#a"/>
    </mask>
    <path fill="#FEFEFE" d="M18.0478528,15.229 L15.6960602,15.229 L15.6960602,23.589 L12.2114775,23.589 L12.2114775,15.229 L10.5553985,15.229 L10.5553985,12.273 L12.2114775,12.273 L12.2114775,10.361 C12.2114775,8.993 12.8650874,6.855 15.7281393,6.855 L18.3104998,6.863 L18.3104998,9.733 L16.4358825,9.733 C16.1311319,9.733 15.6980652,9.885 15.6980652,10.537 L15.6980652,12.273 L18.3526035,12.273 L18.0478528,15.229 Z M14.4529985,0.303 C6.48336889,0.303 0.00140345679,6.771 0.00140345679,14.721 C0.00140345679,22.671 6.48336889,29.139 14.4529985,29.139 C22.4226281,29.139 28.9065985,22.671 28.9065985,14.721 C28.9065985,6.771 22.4246331,0.303 14.4529985,0.303 Z" mask="url(#b)"/>
  </g>
</svg>
