<svg xmlns="http://www.w3.org/2000/svg" width="30" height="30" viewBox="0 0 30 30">
  <path fill="#FFFFFF" d="M15,0 C6.71624944,0 0,6.71624944 0,15 C0,23.2837506 6.71624944,30 15,30 C23.2837506,30 30,23.2837506 30,15 C30,6.71439909 23.2837506,0 15,0 Z M11.25,22.2656211 L7.5,22.2656211 L7.5,9.14059031 L11.25,9.14059031 L11.25,22.2656211 Z M9.49123341,8.33623908 C8.51997977,8.33623908 7.73437885,7.54872613 7.73437885,6.57747249 C7.73437885,5.60621885 8.52189181,4.8187059 9.49123341,4.8187059 C10.462487,4.82055626 11.25,5.60806921 11.25,6.57747249 C11.25,7.54872613 10.462487,8.33623908 9.49123341,8.33623908 Z M24.3749692,22.2656211 L20.6249692,22.2656211 L20.6249692,14.1506234 C20.6249692,13.1999704 20.3530897,12.5343961 19.1849578,12.5343961 C17.2480633,12.5343961 16.8749692,14.1506234 16.8749692,14.1506234 L16.8749692,22.2656211 L13.1249692,22.2656211 L13.1249692,9.14059031 L16.8749692,9.14059031 L16.8749692,10.3949489 C17.4112033,9.98435418 18.7499383,9.14244067 20.6249692,9.14244067 C21.8399768,9.14244067 24.3749692,9.8699403 24.3749692,14.2649139 L24.3749692,22.2656211 Z"/>
</svg>
