<svg xmlns="http://www.w3.org/2000/svg" width="30" height="30" viewBox="0 0 30 30">
  <g fill="#FFFFFF">
    <path d="M12.2354082,18.2409184 C14.4805102,17.0767347 16.7060204,15.9232653 18.9520408,14.7584694 C16.6992857,13.5829592 14.4743878,12.4227551 12.2354082,11.2542857 C12.2354082,13.5912245 12.2354082,15.9042857 12.2354082,18.2409184 Z"/>
    <path d="M14.9617347,0 C6.69887755,0 0,6.69857143 0,14.9617347 C0,23.224898 6.69887755,29.9234694 14.9617347,29.9234694 C23.2245918,29.9234694 29.9234694,23.224898 29.9234694,14.9617347 C29.9234694,6.69857143 23.2245918,0 14.9617347,0 Z M25.1559184,19.9558163 C24.8969388,21.0792857 23.9779592,21.9079592 22.8719388,22.0313265 C20.252449,22.3242857 17.6014286,22.3258163 14.9611224,22.3242857 C12.3208163,22.3258163 9.66918367,22.3242857 7.04908163,22.0313265 C5.94306122,21.9079592 5.02469388,21.0792857 4.76632653,19.9558163 C4.39806122,18.3554082 4.39806122,16.6089796 4.39806122,14.9617347 C4.39806122,13.3144898 4.40234694,11.567449 4.77061224,9.96765306 C5.02897959,8.84418367 5.94734694,8.01520408 7.05336735,7.89153061 C9.67346939,7.59887755 12.325102,7.59734694 14.9654082,7.59887755 C17.605102,7.59734694 20.2567347,7.59887755 22.8759184,7.89153061 C23.982551,8.01520408 24.9015306,8.84387755 25.159898,9.96765306 C25.5281633,11.5677551 25.525102,13.3144898 25.525102,14.9617347 C25.525102,16.6089796 25.5241837,18.3557143 25.1559184,19.9558163 Z"/>
  </g>
</svg>
